<?xml version="1.0" encoding="UTF-8" standalone="no"?>
<!-- Created with Inkscape (http://www.inkscape.org/) -->
<svg xmlns:dc="http://purl.org/dc/elements/1.1/" xmlns:cc="http://creativecommons.org/ns#" xmlns:rdf="http://www.w3.org/1999/02/22-rdf-syntax-ns#" xmlns:svg="http://www.w3.org/2000/svg" xmlns="http://www.w3.org/2000/svg" xmlns:xlink="http://www.w3.org/1999/xlink" xmlns:sodipodi="http://sodipodi.sourceforge.net/DTD/sodipodi-0.dtd" xmlns:inkscape="http://www.inkscape.org/namespaces/inkscape" version="1.0" width="608.63141" height="354.33072" viewBox="-18 -6 36 17" id="Olympic Rings" sodipodi:version="0.32" inkscape:version="0.46" sodipodi:docname="GoldSilverBronze_medals.svg" inkscape:output_extension="org.inkscape.output.svg.inkscape">
  <metadata id="metadata21">
    <rdf:RDF>
      <cc:Work rdf:about="">
        <dc:format>image/svg+xml</dc:format>
        <dc:type rdf:resource="http://purl.org/dc/dcmitype/StillImage"/>
      </cc:Work>
    </rdf:RDF>
  </metadata>
  <sodipodi:namedview inkscape:window-height="750" inkscape:window-width="1152" inkscape:pageshadow="2" inkscape:pageopacity="0.0" guidetolerance="10.0" gridtolerance="10.0" objecttolerance="10.0" borderopacity="1.0" bordercolor="#666666" pagecolor="#ffffff" id="base" showgrid="false" inkscape:zoom="1.2996372" inkscape:cx="304.3157" inkscape:cy="177.16536" inkscape:window-x="0" inkscape:window-y="80" inkscape:current-layer="Olympic Rings" inkscape:document-units="mm" units="mm"/>
  <defs id="defs3">
    <linearGradient inkscape:collect="always" id="linearGradient4774">
      <stop style="stop-color: rgb(255, 222, 86); stop-opacity: 1;" offset="0" id="stop4776"/>
      <stop style="stop-color: rgb(255, 222, 86); stop-opacity: 0;" offset="1" id="stop4778"/>
    </linearGradient>
    <inkscape:perspective sodipodi:type="inkscape:persp3d" inkscape:vp_x="0 : 150 : 1" inkscape:vp_y="0 : 1000 : 0" inkscape:vp_z="300 : 150 : 1" inkscape:persp3d-origin="150 : 100 : 1" id="perspective23"/>
    <clipPath id="clip_white">
      <path d="M 0,0 L -10,-5 L -10,5 L 0,0 z M 0,0 L 0.1,-10 L 8.1,-10 L 0,0 z" id="path6"/>
    </clipPath>
    <clipPath id="clip_color">
      <path d="M 0,0 L -10,-10 L -10,10 L 0,0 z M 0,0 L 0,-10 L 10,-10 L 0,0 z" id="path9"/>
    </clipPath>
    <clipPath id="clipPath2426">
      <path id="path2428" d="M 0,0 L -10,-10 L -10,10 L 0,0 z M 0,0 L 0,-10 L 10,-10 L 0,0 z"/>
    </clipPath>
    <clipPath id="clipPath2422">
      <path id="path2424" d="M 0,0 L -10,-5 L -10,5 L 0,0 z M 0,0 L 0.1,-10 L 8.1,-10 L 0,0 z"/>
    </clipPath>
    <inkscape:perspective id="perspective2419" inkscape:persp3d-origin="150 : 100 : 1" inkscape:vp_z="300 : 150 : 1" inkscape:vp_y="0 : 1000 : 0" inkscape:vp_x="0 : 150 : 1" sodipodi:type="inkscape:persp3d"/>
    <clipPath id="clipPath2481">
      <path id="path2483" d="M 0,0 L -10,-10 L -10,10 L 0,0 z M 0,0 L 0,-10 L 10,-10 L 0,0 z"/>
    </clipPath>
    <clipPath id="clipPath2477">
      <path id="path2479" d="M 0,0 L -10,-5 L -10,5 L 0,0 z M 0,0 L 0.1,-10 L 8.1,-10 L 0,0 z"/>
    </clipPath>
    <inkscape:perspective id="perspective2474" inkscape:persp3d-origin="150 : 100 : 1" inkscape:vp_z="300 : 150 : 1" inkscape:vp_y="0 : 1000 : 0" inkscape:vp_x="0 : 150 : 1" sodipodi:type="inkscape:persp3d"/>
    <radialGradient inkscape:collect="always" xlink:href="#linearGradient4774" id="radialGradient2545" gradientUnits="userSpaceOnUse" gradientTransform="matrix(1,0,0,0.995334,0,-8.10645e-3)" cx="-2.9830511" cy="-1.7372881" fx="-2.9830511" fy="-1.7372881" r="7.2647424"/>
  </defs>
  <g id="g2485" transform="matrix(0.4784227,0,0,0.4784227,6.5676755,1.0098608)">
    <path id="path2487" style="fill:#cd7f32;fill-opacity:1;stroke:#a05a2c;stroke-width:0.36000001;stroke-miterlimit:4;stroke-dasharray:none;stroke-opacity:1" transform="matrix(2.47772,0,0,2.47772,7.39116,6.80451)" d="M 4.1016951,-1.7372881 C 4.1016951,2.1567875 0.92974625,5.3135595 -2.983051,5.3135595 C -6.8958481,5.3135595 -10.067797,2.1567875 -10.067797,-1.7372881 C -10.067797,-5.6313637 -6.8958481,-8.7881357 -2.9830509,-8.7881357 C 0.92974625,-8.7881357 4.1016951,-5.6313637 4.1016951,-1.7372881 z"/>
    <circle id="circle2489" style="fill:none;stroke:#a05a2c;stroke-width:1.39999998;stroke-opacity:1" transform="matrix(0.793303,0,0,0.793303,0,0.516742)" r="5" cy="5" cx="-6" sodipodi:cx="-6" sodipodi:cy="5" sodipodi:rx="5" sodipodi:ry="5"/>
    <circle id="circle2491" style="fill:none;stroke:#a05a2c;stroke-width:1.39999998;stroke-opacity:1" transform="matrix(0.793303,0,0,0.793303,0,0.516742)" r="5" cy="5" cx="6" sodipodi:cx="6" sodipodi:cy="5" sodipodi:rx="5" sodipodi:ry="5"/>
    <circle id="circle2493" style="fill:none;stroke:#cd7f32;stroke-width:1;stroke-opacity:1" transform="matrix(0.793303,0,0,0.793303,0,0.516742)" r="5" cy="5" cx="-6" sodipodi:cx="-6" sodipodi:cy="5" sodipodi:rx="5" sodipodi:ry="5"/>
    <circle id="circle2495" style="fill:none;stroke:#cd7f32;stroke-width:1;stroke-opacity:1" transform="matrix(0.793303,0,0,0.793303,0,0.516742)" r="5" cy="5" cx="6" sodipodi:cx="6" sodipodi:cy="5" sodipodi:rx="5" sodipodi:ry="5"/>
    <circle id="circle2497" style="fill:none;stroke:#a05a2c;stroke-width:1.39999998;stroke-opacity:1" transform="matrix(0.793303,0,0,0.793303,0,0.516742)" r="5" cy="0" cx="-12" sodipodi:cx="-12" sodipodi:cy="0" sodipodi:rx="5" sodipodi:ry="5"/>
    <circle id="circle2499" style="fill:none;stroke:#a05a2c;stroke-width:1.39999998;stroke-opacity:1" transform="matrix(0.793303,0,0,0.793303,0,0.516742)" r="5" cy="0" cx="0" sodipodi:cx="0" sodipodi:cy="0" sodipodi:rx="5" sodipodi:ry="5"/>
    <circle id="circle2501" style="fill:none;stroke:#a05a2c;stroke-width:1.39999998;stroke-opacity:1" transform="matrix(0.793303,0,0,0.793303,0,0.516742)" r="5" cy="0" cx="12" sodipodi:cx="12" sodipodi:cy="0" sodipodi:rx="5" sodipodi:ry="5"/>
    <circle id="circle2503" style="fill:none;stroke:#cd7f32;stroke-width:1;stroke-opacity:1" transform="matrix(0.793303,0,0,0.793303,0,0.516742)" r="5" cy="0" cx="-12" sodipodi:cx="-12" sodipodi:cy="0" sodipodi:rx="5" sodipodi:ry="5"/>
    <circle id="circle2505" style="fill:none;stroke:#cd7f32;stroke-width:1;stroke-opacity:1" transform="matrix(0.793303,0,0,0.793303,0,0.516742)" r="5" cy="0" cx="0" sodipodi:cx="0" sodipodi:cy="0" sodipodi:rx="5" sodipodi:ry="5"/>
    <circle id="circle2507" style="fill:none;stroke:#cd7f32;stroke-width:1;stroke-opacity:1" transform="matrix(0.793303,0,0,0.793303,0,0.516742)" r="5" cy="0" cx="12" sodipodi:cx="12" sodipodi:cy="0" sodipodi:rx="5" sodipodi:ry="5"/>
  </g>
  <g id="g2430" transform="matrix(0.4784227,0,0,0.4784227,0.4719757,1.0098608)">
    <path id="path2432" style="fill:#cccccc;fill-opacity:1;stroke:#999999;stroke-width:0.36000001;stroke-miterlimit:4;stroke-dasharray:none;stroke-opacity:1" transform="matrix(2.47772,0,0,2.47772,7.39116,6.80451)" d="M 4.1016951,-1.7372881 C 4.1016951,2.1567875 0.92974625,5.3135595 -2.983051,5.3135595 C -6.8958481,5.3135595 -10.067797,2.1567875 -10.067797,-1.7372881 C -10.067797,-5.6313637 -6.8958481,-8.7881357 -2.9830509,-8.7881357 C 0.92974625,-8.7881357 4.1016951,-5.6313637 4.1016951,-1.7372881 z"/>
    <circle id="circle2434" style="fill:none;stroke:#808080;stroke-width:1.39999998;stroke-opacity:1" transform="matrix(0.793303,0,0,0.793303,0,0.516742)" r="5" cy="5" cx="-6" sodipodi:cx="-6" sodipodi:cy="5" sodipodi:rx="5" sodipodi:ry="5"/>
    <circle id="circle2436" style="fill:none;stroke:#808080;stroke-width:1.39999998;stroke-opacity:1" transform="matrix(0.793303,0,0,0.793303,0,0.516742)" r="5" cy="5" cx="6" sodipodi:cx="6" sodipodi:cy="5" sodipodi:rx="5" sodipodi:ry="5"/>
    <circle id="circle2438" style="fill:none;stroke:#cccccc;stroke-width:1;stroke-opacity:1" transform="matrix(0.793303,0,0,0.793303,0,0.516742)" r="5" cy="5" cx="-6" sodipodi:cx="-6" sodipodi:cy="5" sodipodi:rx="5" sodipodi:ry="5"/>
    <circle id="circle2440" style="fill:none;stroke:#cccccc;stroke-width:1;stroke-opacity:1" transform="matrix(0.793303,0,0,0.793303,0,0.516742)" r="5" cy="5" cx="6" sodipodi:cx="6" sodipodi:cy="5" sodipodi:rx="5" sodipodi:ry="5"/>
    <circle id="circle2442" style="fill:none;stroke:#808080;stroke-width:1.39999998;stroke-opacity:1" transform="matrix(0.793303,0,0,0.793303,0,0.516742)" r="5" cy="0" cx="-12" sodipodi:cx="-12" sodipodi:cy="0" sodipodi:rx="5" sodipodi:ry="5"/>
    <circle id="circle2444" style="fill:none;stroke:#808080;stroke-width:1.39999998;stroke-opacity:1" transform="matrix(0.793303,0,0,0.793303,0,0.516742)" r="5" cy="0" cx="0" sodipodi:cx="0" sodipodi:cy="0" sodipodi:rx="5" sodipodi:ry="5"/>
    <circle id="circle2446" style="fill:none;stroke:#808080;stroke-width:1.39999998;stroke-opacity:1" transform="matrix(0.793303,0,0,0.793303,0,0.516742)" r="5" cy="0" cx="12" sodipodi:cx="12" sodipodi:cy="0" sodipodi:rx="5" sodipodi:ry="5"/>
    <circle id="circle2448" style="fill:none;stroke:#cccccc;stroke-width:1;stroke-opacity:1" transform="matrix(0.793303,0,0,0.793303,0,0.516742)" r="5" cy="0" cx="-12" sodipodi:cx="-12" sodipodi:cy="0" sodipodi:rx="5" sodipodi:ry="5"/>
    <circle id="circle2450" style="fill:none;stroke:#cccccc;stroke-width:1;stroke-opacity:1" transform="matrix(0.793303,0,0,0.793303,0,0.516742)" r="5" cy="0" cx="0" sodipodi:cx="0" sodipodi:cy="0" sodipodi:rx="5" sodipodi:ry="5"/>
    <circle id="circle2452" style="fill:none;stroke:#cccccc;stroke-width:1;stroke-opacity:1" transform="matrix(0.793303,0,0,0.793303,0,0.516742)" r="5" cy="0" cx="12" sodipodi:cx="12" sodipodi:cy="0" sodipodi:rx="5" sodipodi:ry="5"/>
  </g>
  <g id="g2525" transform="matrix(0.4784227,0,0,0.4784227,-5.6552741,1.0098508)">
    <path id="path4764" style="fill:#ffcd00;fill-opacity:1;stroke:#ffb52a;stroke-width:0.89196002;stroke-miterlimit:4;stroke-dasharray:none;stroke-opacity:1" d="M 17.685911,2.5000059 C 17.685911,12.148431 9.826713,19.970025 0.13190083,19.970025 C -9.5629111,19.970025 -17.422109,12.148431 -17.422109,2.5000059 C -17.422109,-7.1484193 -9.5629111,-14.970013 0.13190083,-14.970013 C 9.826713,-14.970013 17.685911,-7.1484193 17.685911,2.5000059 z"/>
    <g transform="translate(0,9.8096157e-6)" id="g2509">
      <path d="M 4.1016951,-1.7372881 C 4.1016951,2.1567875 0.92974625,5.3135595 -2.983051,5.3135595 C -6.8958481,5.3135595 -10.067797,2.1567875 -10.067797,-1.7372881 C -10.067797,-5.6313637 -6.8958481,-8.7881357 -2.9830509,-8.7881357 C 0.92974625,-8.7881357 4.1016951,-5.6313637 4.1016951,-1.7372881 z" transform="matrix(2.47772,0,0,2.47772,7.39116,6.80451)" style="fill:url(#radialGradient2545);fill-opacity:1;stroke:#ffb52a;stroke-width:0.359992;stroke-miterlimit:4;stroke-dasharray:none;stroke-opacity:1" id="path3708"/>
      <g id="g6387">
        <circle sodipodi:ry="5" sodipodi:rx="5" sodipodi:cy="5" sodipodi:cx="-6" cx="-6" cy="5" r="5" transform="matrix(0.793303,0,0,0.793303,0,0.516742)" style="fill:none;stroke:#d39a00;stroke-width:1.39999998;stroke-opacity:1" id="circle13"/>
        <circle sodipodi:ry="5" sodipodi:rx="5" sodipodi:cy="5" sodipodi:cx="6" cx="6" cy="5" r="5" transform="matrix(0.793303,0,0,0.793303,0,0.516742)" style="fill:none;stroke:#d39a00;stroke-width:1.39999998;stroke-opacity:1" id="circle15"/>
        <circle sodipodi:ry="5" sodipodi:rx="5" sodipodi:cy="5" sodipodi:cx="-6" cx="-6" cy="5" r="5" transform="matrix(0.793303,0,0,0.793303,0,0.516742)" style="fill:none;stroke:#ffb52a;stroke-width:1;stroke-opacity:1" id="circle17"/>
        <circle sodipodi:ry="5" sodipodi:rx="5" sodipodi:cy="5" sodipodi:cx="6" cx="6" cy="5" r="5" transform="matrix(0.793303,0,0,0.793303,0,0.516742)" style="fill:none;stroke:#ffb52a;stroke-width:1;stroke-opacity:1" id="circle19"/>
        <circle sodipodi:ry="5" sodipodi:rx="5" sodipodi:cy="0" sodipodi:cx="-12" cx="-12" cy="0" r="5" transform="matrix(0.793303,0,0,0.793303,0,0.516742)" style="fill:none;stroke:#d39a00;stroke-width:1.39999998;stroke-opacity:1" id="circle21"/>
        <circle sodipodi:ry="5" sodipodi:rx="5" sodipodi:cy="0" sodipodi:cx="0" cx="0" cy="0" r="5" transform="matrix(0.793303,0,0,0.793303,0,0.516742)" style="fill:none;stroke:#d39a00;stroke-width:1.39999998;stroke-opacity:1" id="circle23"/>
        <circle sodipodi:ry="5" sodipodi:rx="5" sodipodi:cy="0" sodipodi:cx="12" cx="12" cy="0" r="5" transform="matrix(0.793303,0,0,0.793303,0,0.516742)" style="fill:none;stroke:#d39a00;stroke-width:1.39999998;stroke-opacity:1" id="circle25"/>
        <circle sodipodi:ry="5" sodipodi:rx="5" sodipodi:cy="0" sodipodi:cx="-12" cx="-12" cy="0" r="5" transform="matrix(0.793303,0,0,0.793303,0,0.516742)" style="fill:none;stroke:#ffb52a;stroke-width:1;stroke-opacity:1" id="circle27"/>
        <circle sodipodi:ry="5" sodipodi:rx="5" sodipodi:cy="0" sodipodi:cx="0" cx="0" cy="0" r="5" transform="matrix(0.793303,0,0,0.793303,0,0.516742)" style="fill:none;stroke:#ffb52a;stroke-width:1;stroke-opacity:1" id="circle29"/>
        <circle sodipodi:ry="5" sodipodi:rx="5" sodipodi:cy="0" sodipodi:cx="12" cx="12" cy="0" r="5" transform="matrix(0.793303,0,0,0.793303,0,0.516742)" style="fill:none;stroke:#ffb52a;stroke-width:1;stroke-opacity:1" id="circle31"/>
      </g>
    </g>
  </g>
</svg>